<svg width="143" height="30" viewBox="0 0 143 30" fill="none" xmlns="http://www.w3.org/2000/svg">
<path d="M62.3924 19.4464C62.4033 20.0199 62.2844 20.5884 62.0445 21.1094C61.8047 21.6303 61.4502 22.0904 61.0074 22.455C60.3487 22.9743 59.5344 23.257 58.6956 23.2575C57.6241 23.2224 56.6101 22.7643 55.8756 21.9834C55.141 21.2026 54.7457 20.1625 54.7761 19.0909V7.86621H46.8855V18.9281C46.8855 19.2536 46.8955 19.5307 46.9169 19.7934C46.7993 20.8067 46.2905 21.7339 45.499 22.3774C44.7074 23.0208 43.6959 23.3295 42.68 23.2377C41.664 23.1459 40.7241 22.6607 40.0608 21.8858C39.3975 21.1108 39.0632 20.1074 39.1292 19.0894V7.86621H31.2373V18.9281C31.2373 25.0266 35.7494 29.99 41.2968 29.99C42.8324 29.9728 44.3421 29.5917 45.7019 28.8778C47.0616 28.1639 48.2326 27.1377 49.1187 25.8833C50.0046 27.1373 51.1751 28.1633 52.5344 28.8771C53.8936 29.591 55.4027 29.9724 56.9379 29.99C58.8946 29.9825 60.8005 29.3662 62.391 28.2265V29.99H70.223V7.86621H62.391L62.3924 19.4464Z" fill="white"/>
<path d="M111.644 7.86621C110.366 7.87961 109.103 8.14736 107.929 8.65384C106.756 9.16033 105.695 9.89542 104.808 10.8162V7.86621H96.9707V29.9914H104.808V16.3507H113.129V7.97615L112.512 7.91048C112.224 7.88096 111.935 7.86618 111.645 7.86621" fill="white"/>
<path d="M140.895 7.86754C140.511 7.86017 140.134 7.96718 139.812 8.17493C139.489 8.38268 139.236 8.68177 139.084 9.03407C138.932 9.38637 138.888 9.77592 138.958 10.1531C139.029 10.5303 139.21 10.878 139.478 11.1519C139.747 11.4258 140.091 11.6135 140.467 11.6911C140.843 11.7687 141.233 11.7327 141.588 11.5876C141.943 11.4426 142.247 11.195 142.461 10.8766C142.675 10.5581 142.79 10.1831 142.79 9.79948C142.79 9.29346 142.591 8.8076 142.237 8.44634C141.883 8.08508 141.401 7.87727 140.895 7.86754ZM140.895 11.5101C140.555 11.5169 140.22 11.4222 139.934 11.2381C139.647 11.054 139.423 10.7889 139.288 10.4764C139.153 10.164 139.114 9.81844 139.176 9.48384C139.238 9.14923 139.399 8.84073 139.637 8.59766C139.875 8.35458 140.18 8.18796 140.513 8.11902C140.847 8.05008 141.193 8.08195 141.508 8.21057C141.823 8.33919 142.093 8.55873 142.283 8.8412C142.473 9.12367 142.574 9.45629 142.574 9.79662C142.574 10.2452 142.398 10.6759 142.084 10.9963C141.77 11.3166 141.343 11.5011 140.895 11.5101Z" fill="white"/>
<path d="M141.291 10.0027C141.247 9.99569 141.206 9.97689 141.172 9.94826C141.138 9.91964 141.112 9.88228 141.097 9.84015C141.082 9.79803 141.079 9.75271 141.088 9.70901C141.097 9.66531 141.118 9.62487 141.148 9.59197C141.178 9.55906 141.217 9.53491 141.259 9.52212C141.302 9.50932 141.348 9.50833 141.391 9.51926C141.434 9.53019 141.474 9.55264 141.505 9.58421C141.537 9.61578 141.559 9.65531 141.57 9.69858C141.665 9.59492 141.716 9.45815 141.713 9.31733C141.714 9.20428 141.683 9.09313 141.625 8.99605C141.573 8.90381 141.491 8.83224 141.393 8.79329C141.254 8.74875 141.109 8.72941 140.964 8.73618H140.039V10.8637H140.315V9.9199H140.636C140.687 9.91839 140.738 9.92174 140.789 9.9299C140.834 9.94213 140.877 9.9614 140.916 9.987C140.971 10.0268 141.019 10.075 141.059 10.1298C141.111 10.1983 141.177 10.2954 141.258 10.4239L141.534 10.8652H141.882L141.518 10.2869C141.455 10.1823 141.378 10.0863 141.29 10.0013M140.913 9.6743H140.319V8.97034H140.98C141.101 8.96036 141.222 8.99489 141.32 9.06745C141.355 9.09874 141.383 9.13733 141.401 9.1805C141.42 9.22368 141.429 9.27038 141.427 9.31733C141.427 9.38466 141.408 9.45058 141.371 9.50723C141.333 9.56673 141.276 9.61152 141.209 9.63432C141.113 9.6644 141.013 9.67792 140.913 9.6743Z" fill="white"/>
<path d="M87.5493 9.79534C85.9174 8.55047 83.9231 7.87349 81.8706 7.86768C76.3261 7.86768 71.8154 12.8296 71.8154 18.9295C71.8154 25.0295 76.3261 29.9914 81.8706 29.9914C83.9231 29.9855 85.9174 29.3085 87.5493 28.0638V29.9914H95.3813V7.86911H87.5493V9.79534ZM83.6255 23.1832C82.6537 23.2338 81.6892 22.9917 80.8564 22.4884C80.0236 21.985 79.3608 21.2435 78.9538 20.3596C78.5469 19.4757 78.4143 18.4901 78.5733 17.5301C78.7323 16.5701 79.1755 15.6798 79.8458 14.9743C80.516 14.2689 81.3824 13.7806 82.333 13.5726C83.2836 13.3646 84.2747 13.4465 85.1783 13.8076C86.0819 14.1688 86.8563 14.7926 87.4017 15.5985C87.9471 16.4044 88.2383 17.3553 88.2376 18.3284C88.2679 19.5833 87.7995 20.799 86.9349 21.709C86.0704 22.6191 84.8803 23.1492 83.6255 23.1832Z" fill="white"/>
<path d="M26.1316 1.04233H24.2482H23.0302L17.4614 6.61112L16.9974 7.06518L10.7775 1.05089H1.88745V7.762H11.7798H16.322L14.1159 9.96665L8.91692 15.1642L5.64995 18.4355L5.43713 18.6354L1.09498 22.9762C0.421957 23.628 0.0321762 24.5183 0.00976562 25.455V29.9728H3.50237C3.60517 29.9824 3.70896 29.9871 3.81367 29.9871H28.9917V23.1761H12.6837L12.7094 23.1518H12.6922L20.0416 15.8025L23.3644 12.4812L23.5771 12.2813L28.5119 7.3479C29.1842 6.69552 29.5738 5.80556 29.5971 4.86909V1.03662H26.1287L26.1316 1.04233Z" fill="white"/>
<path d="M129.67 9.79583C128.038 8.55086 126.043 7.87388 123.991 7.86816C118.446 7.86816 113.936 12.8301 113.936 18.93C113.936 25.03 118.446 29.9919 123.991 29.9919C126.043 29.9861 128.038 29.3091 129.67 28.0643V29.9919H137.502V7.8696H129.67V9.79583ZM125.746 23.1837C124.774 23.2343 123.809 22.9922 122.976 22.4889C122.144 21.9855 121.481 21.244 121.074 20.3601C120.667 19.4762 120.534 18.4906 120.693 17.5306C120.852 16.5706 121.296 15.6803 121.966 14.9748C122.636 14.2693 123.503 13.781 124.453 13.5731C125.404 13.3651 126.395 13.447 127.298 13.8081C128.202 14.1693 128.977 14.7931 129.522 15.599C130.067 16.4049 130.358 17.3558 130.358 18.3289C130.388 19.5839 129.92 20.7998 129.055 21.7099C128.191 22.6201 127.001 23.1501 125.746 23.1837Z" fill="white"/>
<path d="M17.0476 5.38172L22.425 0H11.4873L16.8647 5.38172L16.9019 5.41743L16.9533 5.46883L17.0033 5.41743L17.0418 5.38172H17.0476Z" fill="white"/>
</svg>
